<svg width="292" height="87" viewBox="0 0 292 87" fill="none" xmlns="http://www.w3.org/2000/svg">
<g clip-path="url(#clip0)">
<rect width="292" height="87" fill="white"/>
<path d="M102.393 64.1602C101.883 64.1602 101.463 63.9952 101.133 63.6652C100.803 63.3352 100.638 62.9152 100.638 62.4052V30.7702C100.638 30.2602 100.803 29.8402 101.133 29.5102C101.463 29.1802 101.883 29.0152 102.393 29.0152C102.933 29.0152 103.383 29.2252 103.743 29.6452L125.253 57.9052V30.7702C125.253 30.2602 125.418 29.8402 125.748 29.5102C126.078 29.1802 126.498 29.0152 127.008 29.0152C127.488 29.0152 127.893 29.1802 128.223 29.5102C128.583 29.8402 128.763 30.2602 128.763 30.7702V62.4052C128.763 62.9152 128.583 63.3352 128.223 63.6652C127.893 63.9952 127.488 64.1602 127.008 64.1602C126.768 64.1602 126.528 64.1152 126.288 64.0252C126.048 63.9352 125.853 63.7852 125.703 63.5752L104.148 35.3152V62.4052C104.148 62.9152 103.968 63.3352 103.608 63.6652C103.278 63.9952 102.873 64.1602 102.393 64.1602ZM148.526 64.3852C146.126 64.3852 143.981 63.8452 142.091 62.7652C140.201 61.6852 138.716 60.2002 137.636 58.3102C136.556 56.4202 136.016 54.2752 136.016 51.8752C136.016 49.4452 136.556 47.2852 137.636 45.3952C138.716 43.5052 140.201 42.0202 142.091 40.9402C143.981 39.8602 146.126 39.3202 148.526 39.3202C150.926 39.3202 153.056 39.8602 154.916 40.9402C156.806 42.0202 158.291 43.5052 159.371 45.3952C160.451 47.2852 161.006 49.4452 161.036 51.8752C161.036 54.2752 160.481 56.4202 159.371 58.3102C158.291 60.2002 156.806 61.6852 154.916 62.7652C153.056 63.8452 150.926 64.3852 148.526 64.3852ZM148.526 61.2352C150.266 61.2352 151.826 60.8302 153.206 60.0202C154.586 59.2102 155.666 58.1002 156.446 56.6902C157.226 55.2802 157.616 53.6752 157.616 51.8752C157.616 50.0752 157.226 48.4702 156.446 47.0602C155.666 45.6202 154.586 44.4952 153.206 43.6852C151.826 42.8752 150.266 42.4702 148.526 42.4702C146.786 42.4702 145.226 42.8752 143.846 43.6852C142.466 44.4952 141.371 45.6202 140.561 47.0602C139.781 48.4702 139.391 50.0752 139.391 51.8752C139.391 53.6752 139.781 55.2802 140.561 56.6902C141.371 58.1002 142.466 59.2102 143.846 60.0202C145.226 60.8302 146.786 61.2352 148.526 61.2352ZM178.486 64.4302C176.356 64.4302 174.451 63.9952 172.771 63.1252C171.091 62.2252 169.756 60.9202 168.766 59.2102C167.806 57.5002 167.326 55.4152 167.326 52.9552V41.2552C167.326 40.7752 167.491 40.3702 167.821 40.0402C168.151 39.7102 168.556 39.5452 169.036 39.5452C169.546 39.5452 169.966 39.7102 170.296 40.0402C170.626 40.3702 170.791 40.7752 170.791 41.2552V52.9552C170.791 54.8152 171.136 56.3452 171.826 57.5452C172.546 58.7452 173.506 59.6452 174.706 60.2452C175.936 60.8452 177.316 61.1452 178.846 61.1452C180.316 61.1452 181.636 60.8602 182.806 60.2902C184.006 59.7202 184.951 58.9402 185.641 57.9502C186.331 56.9602 186.676 55.8352 186.676 54.5752H189.151C189.061 56.4652 188.536 58.1602 187.576 59.6602C186.646 61.1302 185.386 62.3002 183.796 63.1702C182.206 64.0102 180.436 64.4302 178.486 64.4302ZM188.386 64.1602C187.876 64.1602 187.456 64.0102 187.126 63.7102C186.826 63.3802 186.676 62.9452 186.676 62.4052V41.2552C186.676 40.7452 186.826 40.3402 187.126 40.0402C187.456 39.7102 187.876 39.5452 188.386 39.5452C188.896 39.5452 189.316 39.7102 189.646 40.0402C189.976 40.3402 190.141 40.7452 190.141 41.2552V62.4052C190.141 62.9452 189.976 63.3802 189.646 63.7102C189.316 64.0102 188.896 64.1602 188.386 64.1602ZM199.67 48.9952C199.76 47.1352 200.24 45.4702 201.11 44.0002C202.01 42.5302 203.165 41.3752 204.575 40.5352C206.015 39.6952 207.605 39.2752 209.345 39.2752C210.725 39.2752 211.79 39.4702 212.54 39.8602C213.29 40.2502 213.575 40.8202 213.395 41.5702C213.275 42.0202 213.065 42.3202 212.765 42.4702C212.495 42.6202 212.15 42.6802 211.73 42.6502C211.34 42.6202 210.89 42.5902 210.38 42.5602C208.7 42.4102 207.2 42.5902 205.88 43.1002C204.59 43.5802 203.555 44.3302 202.775 45.3502C202.025 46.3702 201.65 47.5852 201.65 48.9952H199.67ZM199.94 64.1602C199.4 64.1602 198.98 64.0102 198.68 63.7102C198.38 63.4102 198.23 62.9902 198.23 62.4502V41.2552C198.23 40.7152 198.38 40.2952 198.68 39.9952C198.98 39.6952 199.4 39.5452 199.94 39.5452C200.48 39.5452 200.9 39.6952 201.2 39.9952C201.5 40.2952 201.65 40.7152 201.65 41.2552V62.4502C201.65 62.9902 201.5 63.4102 201.2 63.7102C200.9 64.0102 200.48 64.1602 199.94 64.1602ZM221.315 64.1602C220.775 64.1602 220.34 64.0102 220.01 63.7102C219.71 63.3802 219.56 62.9452 219.56 62.4052V41.3002C219.56 40.7602 219.71 40.3402 220.01 40.0402C220.34 39.7102 220.775 39.5452 221.315 39.5452C221.825 39.5452 222.23 39.7102 222.53 40.0402C222.86 40.3402 223.025 40.7602 223.025 41.3002V62.4052C223.025 62.9452 222.86 63.3802 222.53 63.7102C222.23 64.0102 221.825 64.1602 221.315 64.1602ZM221.27 34.8652C220.61 34.8652 220.04 34.6252 219.56 34.1452C219.08 33.6652 218.84 33.0802 218.84 32.3902C218.84 31.6402 219.08 31.0552 219.56 30.6352C220.07 30.1852 220.655 29.9602 221.315 29.9602C221.945 29.9602 222.5 30.1852 222.98 30.6352C223.49 31.0552 223.745 31.6402 223.745 32.3902C223.745 33.0802 223.505 33.6652 223.025 34.1452C222.545 34.6252 221.96 34.8652 221.27 34.8652ZM240.443 64.3852C238.673 64.3852 236.918 64.0852 235.178 63.4852C233.438 62.8852 232.028 61.9852 230.948 60.7852C230.618 60.4252 230.483 60.0202 230.543 59.5702C230.603 59.1202 230.828 58.7302 231.218 58.4002C231.638 58.1002 232.073 57.9802 232.523 58.0402C232.973 58.1002 233.348 58.2952 233.648 58.6252C234.368 59.4652 235.313 60.1102 236.483 60.5602C237.683 61.0102 239.003 61.2352 240.443 61.2352C242.663 61.2352 244.268 60.8602 245.258 60.1102C246.248 59.3302 246.758 58.4002 246.788 57.3202C246.788 56.2402 246.278 55.3552 245.258 54.6652C244.238 53.9452 242.558 53.3902 240.218 53.0002C237.188 52.5202 234.968 51.6802 233.558 50.4802C232.148 49.2802 231.443 47.8552 231.443 46.2052C231.443 44.6752 231.848 43.4002 232.658 42.3802C233.468 41.3602 234.548 40.5952 235.898 40.0852C237.248 39.5752 238.733 39.3202 240.353 39.3202C242.363 39.3202 244.088 39.6652 245.528 40.3552C246.998 41.0452 248.183 41.9752 249.083 43.1452C249.383 43.5352 249.503 43.9402 249.443 44.3602C249.383 44.7802 249.143 45.1252 248.723 45.3952C248.363 45.6052 247.943 45.6802 247.463 45.6202C247.013 45.5302 246.623 45.3052 246.293 44.9452C245.543 44.0752 244.673 43.4452 243.683 43.0552C242.693 42.6352 241.553 42.4252 240.263 42.4252C238.613 42.4252 237.293 42.7702 236.303 43.4602C235.313 44.1202 234.818 44.9602 234.818 45.9802C234.818 46.6702 234.998 47.2702 235.358 47.7802C235.748 48.2902 236.393 48.7402 237.293 49.1302C238.223 49.5202 239.513 49.8502 241.163 50.1202C243.413 50.4802 245.183 51.0202 246.473 51.7402C247.793 52.4302 248.723 53.2552 249.263 54.2152C249.833 55.1452 250.118 56.1652 250.118 57.2752C250.118 58.6852 249.698 59.9302 248.858 61.0102C248.048 62.0602 246.908 62.8852 245.438 63.4852C243.998 64.0852 242.333 64.3852 240.443 64.3852ZM277.211 64.1602C276.701 64.1602 276.281 63.9952 275.951 63.6652C275.621 63.3352 275.456 62.9302 275.456 62.4502V50.7502C275.456 48.8902 275.096 47.3602 274.376 46.1602C273.686 44.9602 272.726 44.0602 271.496 43.4602C270.296 42.8602 268.931 42.5602 267.401 42.5602C265.931 42.5602 264.596 42.8452 263.396 43.4152C262.226 43.9852 261.296 44.7652 260.606 45.7552C259.916 46.7452 259.571 47.8702 259.571 49.1302H257.096C257.156 47.2402 257.666 45.5602 258.626 44.0902C259.586 42.5902 260.861 41.4202 262.451 40.5802C264.041 39.7102 265.811 39.2752 267.761 39.2752C269.891 39.2752 271.796 39.7252 273.476 40.6252C275.156 41.4952 276.476 42.7852 277.436 44.4952C278.426 46.2052 278.921 48.2902 278.921 50.7502V62.4502C278.921 62.9302 278.756 63.3352 278.426 63.6652C278.096 63.9952 277.691 64.1602 277.211 64.1602ZM257.861 64.1602C257.321 64.1602 256.886 64.0102 256.556 63.7102C256.256 63.3802 256.106 62.9602 256.106 62.4502V41.3002C256.106 40.7602 256.256 40.3402 256.556 40.0402C256.886 39.7102 257.321 39.5452 257.861 39.5452C258.371 39.5452 258.776 39.7102 259.076 40.0402C259.406 40.3402 259.571 40.7602 259.571 41.3002V62.4502C259.571 62.9602 259.406 63.3802 259.076 63.7102C258.776 64.0102 258.371 64.1602 257.861 64.1602ZM257.861 54.1252C257.321 54.1252 256.886 53.9602 256.556 53.6302C256.256 53.3002 256.106 52.8802 256.106 52.3702V30.7702C256.106 30.2302 256.256 29.8102 256.556 29.5102C256.886 29.1802 257.321 29.0152 257.861 29.0152C258.371 29.0152 258.776 29.1802 259.076 29.5102C259.406 29.8102 259.571 30.2302 259.571 30.7702V52.3702C259.571 52.8802 259.406 53.3002 259.076 53.6302C258.776 53.9602 258.371 54.1252 257.861 54.1252Z" fill="#89636A"/>
<rect x="215.273" y="22.6733" width="23.75" height="15" fill="white"/>
<path d="M221.761 36.1865V36.1865C222.942 31.7811 220.327 27.2528 215.922 26.0723L208.785 24.16V24.16C207.604 28.5654 210.219 33.0937 214.624 34.2741L221.761 36.1865Z" fill="#398A6A"/>
<path d="M43.4274 74.9459C18.9569 73.7016 -15.3018 58.7705 43.4274 9C98.1749 58.7705 63.3356 74.9459 43.4274 74.9459Z" fill="url(#paint0_radial)"/>
<path d="M43.4274 74.9459C18.9569 73.7016 -15.3018 58.7705 43.4274 9M43.4274 74.9459C63.3356 74.9459 98.1749 58.7705 43.4274 9M43.4274 74.9459C43.4274 67.4803 43.4274 27.8713 43.4274 9" stroke="#89636A" stroke-width="4"/>
<path d="M27.7233 49.5243C28.2252 48.8615 29.1694 48.7311 29.8321 49.233L44.2915 60.1835L41.868 63.3836L28.2086 53.039C27.104 52.2025 26.8867 50.6289 27.7233 49.5243V49.5243Z" fill="#89636A"/>
<path d="M59.0895 49.5243C58.5876 48.8615 57.6434 48.7311 56.9806 49.233L42.5213 60.1835L44.9448 63.3836L58.6041 53.039C59.7087 52.2025 59.926 50.6289 59.0895 49.5243V49.5243Z" fill="#89636A"/>
<path d="M35.6964 29.3695C36.1983 28.7067 37.1425 28.5763 37.8053 29.0783L44.2917 33.9906L41.8682 37.1907L36.1818 32.8842C35.0772 32.0477 34.8599 30.4741 35.6964 29.3695V29.3695Z" fill="#89636A"/>
<path d="M51.0951 29.3578C50.5932 28.695 49.649 28.5646 48.9862 29.0665L42.4998 33.9789L44.9233 37.179L50.6097 32.8725C51.7144 32.036 51.9317 30.4624 51.0951 29.3578V29.3578Z" fill="#89636A"/>
<path d="M30.5575 38.3787C31.0594 37.716 32.0036 37.5856 32.6663 38.0875L44.2917 46.8917L41.8681 50.0918L31.0428 41.8935C29.9382 41.057 29.7209 39.4834 30.5575 38.3787V38.3787Z" fill="#89636A"/>
<path d="M56.4684 38.3787C55.9665 37.716 55.0223 37.5856 54.3595 38.0875L42.7342 46.8917L45.1577 50.0918L55.983 41.8935C57.0876 41.057 57.3049 39.4834 56.4684 38.3787V38.3787Z" fill="#89636A"/>
</g>
<defs>
<radialGradient id="paint0_radial" cx="0" cy="0" r="1" gradientUnits="userSpaceOnUse" gradientTransform="translate(41.9062 55.6598) rotate(90) scale(46.6598 30.9062)">
<stop stop-color="white"/>
<stop offset="1" stop-color="#3DAD81"/>
</radialGradient>
<clipPath id="clip0">
<rect width="292" height="87" fill="white"/>
</clipPath>
</defs>
</svg>
